<?xml version="1.0" encoding="UTF-8" standalone="no"?>
<!-- Created with matplotlib (http://matplotlib.org/) -->

<svg
   xmlns:dc="http://purl.org/dc/elements/1.1/"
   xmlns:cc="http://creativecommons.org/ns#"
   xmlns:rdf="http://www.w3.org/1999/02/22-rdf-syntax-ns#"
   xmlns:svg="http://www.w3.org/2000/svg"
   xmlns="http://www.w3.org/2000/svg"
   xmlns:xlink="http://www.w3.org/1999/xlink"
   xmlns:sodipodi="http://sodipodi.sourceforge.net/DTD/sodipodi-0.dtd"
   xmlns:inkscape="http://www.inkscape.org/namespaces/inkscape"
   height="350pt"
   version="1.1"
   viewBox="0 0 357 350"
   width="357pt"
   id="svg193"
   sodipodi:docname="equivalent_gapped_hamiltonians.svg"
   inkscape:version="0.92.3 (2405546, 2018-03-11)">
  <metadata
     id="metadata197">
    <rdf:RDF>
      <cc:Work
         rdf:about="">
        <dc:format>image/svg+xml</dc:format>
        <dc:type
           rdf:resource="http://purl.org/dc/dcmitype/StillImage" />
      </cc:Work>
    </rdf:RDF>
  </metadata>
  <sodipodi:namedview
     pagecolor="#ffffff"
     bordercolor="#666666"
     borderopacity="1"
     objecttolerance="10"
     gridtolerance="10"
     guidetolerance="10"
     inkscape:pageopacity="0"
     inkscape:pageshadow="2"
     inkscape:window-width="1853"
     inkscape:window-height="1025"
     id="namedview195"
     showgrid="false"
     inkscape:snap-global="false"
     inkscape:zoom="0.65154839"
     inkscape:cx="177.62389"
     inkscape:cy="32.756886"
     inkscape:window-x="67"
     inkscape:window-y="27"
     inkscape:window-maximized="1"
     inkscape:current-layer="svg193" />
  <defs
     id="defs4">
    <style
       type="text/css"
       id="style2">
*{stroke-linecap:butt;stroke-linejoin:round;}
  </style>
  </defs>
  <path
     d="M 0,350.7417 H 357.52189 V 0 H 0 Z"
     style="fill:#ffffff;stroke-linecap:butt;stroke-linejoin:round"
     id="path6"
     inkscape:connector-curvature="0" />
  <path
     inkscape:connector-curvature="0"
     id="path12"
     style="fill:none;stroke:#000000;stroke-width:1.20000005;stroke-linecap:butt;stroke-linejoin:round"
     d="M 0,0"
     clip-path="url(#p0cf8a60c02)" />
  <path
     inkscape:connector-curvature="0"
     id="path14"
     style="fill:none;stroke:#000000;stroke-width:1.20000005;stroke-linecap:butt;stroke-linejoin:round"
     d="M 0,0"
     clip-path="url(#p0cf8a60c02)" />
  <path
     inkscape:connector-curvature="0"
     id="path16"
     style="fill:none;stroke:#000000;stroke-width:1.20000005;stroke-linecap:butt;stroke-linejoin:round"
     d="M 0,0"
     clip-path="url(#p0cf8a60c02)" />
  <path
     inkscape:connector-curvature="0"
     id="path18"
     style="fill:none;stroke:#000000;stroke-width:1.20000005;stroke-linecap:butt;stroke-linejoin:round"
     d="m 147.42214,351.7417 4.9239,-1.00792 5.14595,-0.82365 4.84324,-0.55051 4.84325,-0.32771 4.84324,-0.10727 5.14594,0.11445 5.44865,0.34776 6.35676,0.63433 10.8973,1.36203 2.88549,0.35849 v 0"
     clip-path="url(#p0cf8a60c02)" />
  <path
     inkscape:connector-curvature="0"
     id="path20"
     style="fill:none;stroke:#000000;stroke-width:1.20000005;stroke-linecap:butt;stroke-linejoin:round"
     d="m 75.863454,351.7417 8.677184,-4.13304 10.897298,-4.92635 17.556754,-7.65374 12.41081,-5.22031 7.56757,-2.95334 6.05405,-2.13167 5.44865,-1.68146 4.84325,-1.27302 4.84324,-1.04782 4.84324,-0.81931 4.84325,-0.59806 5.14594,-0.40871 5.44865,-0.1986 5.44865,0.0248 5.44865,0.23992 5.44865,0.45776 5.44865,0.68763 5.14594,0.87606 5.14595,1.11139 4.84324,1.27131 4.84324,1.49468 4.84325,1.71711 5.14594,2.06059 5.44865,2.43139 5.75135,2.81975 6.35676,3.37938 7.26486,4.13196 10.5946,6.32359 6.76354,4.01809 v 0"
     clip-path="url(#p0cf8a60c02)" />
  <path
     inkscape:connector-curvature="0"
     id="path42"
     style="fill:none;stroke:#000000;stroke-width:1.20000005;stroke-linecap:butt;stroke-linejoin:round"
     d="m 139.04155,-1 5.43422,1.676703 4.84325,1.273024 4.84324,1.047824 4.84324,0.819302 4.84325,0.598068 5.14594,0.408707 5.44865,0.198603 5.44865,-0.024818 5.44865,-0.239928 5.44865,-0.457762 5.44865,-0.687626 5.14594,-0.876061 5.14595,-1.111386 4.84324,-1.271311 L 215.78724,-1 v 0"
     clip-path="url(#p0cf8a60c02)" />
  <path
     inkscape:connector-curvature="0"
     id="path44"
     style="fill:none;stroke:#000000;stroke-width:1.20000005;stroke-linecap:butt;stroke-linejoin:round"
     d="M 0,0"
     clip-path="url(#p0cf8a60c02)" />
  <path
     inkscape:connector-curvature="0"
     id="path46"
     style="fill:none;stroke:#000000;stroke-width:1.20000005;stroke-linecap:butt;stroke-linejoin:round"
     d="M 0,0"
     clip-path="url(#p0cf8a60c02)" />
  <path
     inkscape:connector-curvature="0"
     id="path48"
     style="fill:none;stroke:#000000;stroke-width:1.20000005;stroke-linecap:butt;stroke-linejoin:round"
     d="M 0,0"
     clip-path="url(#p0cf8a60c02)" />
  <path
     inkscape:connector-curvature="0"
     id="path50"
     style="fill:none;stroke:#000000;stroke-width:1.20000005;stroke-linecap:butt;stroke-linejoin:round"
     d="M 0,0"
     clip-path="url(#p0cf8a60c02)" />
  <g
     id="line2d_3"
     style="stroke-linecap:butt;stroke-linejoin:round">
    <g
       id="g95"
       style="stroke-linecap:butt;stroke-linejoin:round" />
  </g>
  <g
     id="g5993"
     inkscape:export-xdpi="100"
     inkscape:export-ydpi="100">
    <g
       transform="matrix(2.9675491,0,0,2.9675491,-384.4296,-698.85602)"
       id="text_4"
       style="stroke-linecap:butt;stroke-linejoin:round">
      <!-- $\alpha$ -->
      <defs
         id="defs112">
        <path
           d="m 46.296875,25.25 c 0,9.671875 -5.5,18.734375 -16.09375,18.734375 C 17.09375,43.984375 4,29.71875 4,15.5625 4,6.890625 9.40625,-1 19.59375,-1 c 6.203125,0 13.609375,2.390625 20.703125,8.375 1.40625,-5.578125 4.5,-8.375 8.796875,-8.375 5.40625,0 8.109375,5.59375 8.109375,6.890625 0,0.890625 -0.703125,0.890625 -1,0.890625 C 55.40625,6.78125 55.296875,6.484375 55,5.6875 54.09375,3.1875 51.796875,1 49.40625,1 46.296875,1 46.296875,7.375 46.296875,13.46875 56.5,25.640625 58.90625,38.21875 58.90625,38.3125 c 0,0.90625 -0.8125,0.90625 -1.109375,0.90625 -0.890625,0 -1,-0.296875 -1.390625,-2.09375 C 55.09375,32.734375 52.5,24.953125 46.296875,16.765625 Z M 40,9.78125 C 31.203125,1.890625 23.296875,1 19.796875,1 12.703125,1 10.703125,7.28125 10.703125,11.96875 10.703125,16.25 12.90625,26.4375 16,31.9375 20.09375,38.921875 25.703125,42 30.203125,42 39.90625,42 39.90625,29.328125 39.90625,20.953125 c 0,-2.484375 -0.109375,-5.078125 -0.109375,-7.578125 0,-2 0.109375,-2.5 0.203125,-3.59375"
           id="CMMI12-11"
           inkscape:connector-curvature="0"
           style="stroke-linecap:butt;stroke-linejoin:round" />
      </defs>
      <g
         transform="matrix(0.12,0,0,-0.12,189.03405,341.21711)"
         id="g116"
         style="stroke-linecap:butt;stroke-linejoin:round">
        <use
           transform="scale(0.996264)"
           xlink:href="#CMMI12-11"
           id="use114"
           style="stroke-linecap:butt;stroke-linejoin:round"
           x="0"
           y="0"
           width="100%"
           height="100%" />
      </g>
    </g>
    <g
       transform="matrix(2.3962825,0,0,2.3962825,9.8669399,-223.95847)"
       id="text_8"
       style="stroke-linecap:butt;stroke-linejoin:round">
      <!-- $E$ -->
      <defs
         id="defs163">
        <path
           d="m 69.5,23.265625 c 0.09375,0.296875 0.40625,1.015625 0.40625,1.40625 0,0.5 -0.40625,1 -1,1 -0.40625,0 -0.609375,-0.09375 -0.90625,-0.40625 -0.203125,-0.09375 -0.203125,-0.296875 -1.09375,-2.3125 C 61,8.90625 56.703125,2.890625 40.703125,2.890625 H 26.09375 c -1.390625,0 -1.59375,0 -2.1875,0.109375 -1.109375,0.09375 -1.203125,0.296875 -1.203125,1.09375 0,0.703125 0.203125,1.296875 0.390625,2.203125 L 30,34 h 9.90625 c 7.796875,0 8.390625,-1.71875 8.390625,-4.71875 0,-1 0,-1.90625 -0.703125,-4.90625 -0.1875,-0.40625 -0.296875,-0.8125 -0.296875,-1.109375 0,-0.703125 0.5,-1 1.109375,-1 0.890625,0 1,0.6875 1.390625,2.09375 L 55.5,47.53125 c 0,0.484375 -0.40625,0.984375 -1,0.984375 -0.90625,0 -1,-0.390625 -1.40625,-1.796875 -2,-7.640625 -4,-9.828125 -12.890625,-9.828125 h -9.5 L 36.90625,61.40625 c 0.890625,3.5 1.09375,3.5 5.1875,3.5 h 14.3125 c 12.296875,0 14.796875,-3.296875 14.796875,-10.875 0,-0.109375 0,-2.890625 -0.40625,-6.1875 -0.09375,-0.40625 -0.203125,-1 -0.203125,-1.203125 0,-0.796875 0.5,-1.09375 1.109375,-1.09375 0.703125,0 1.09375,0.40625 1.296875,2.1875 l 2.09375,17.484375 c 0,0.328125 0.203125,1.390625 0.203125,1.609375 C 75.296875,68 74.40625,68 72.59375,68 H 23.796875 c -1.890625,0 -2.890625,0 -2.890625,-1.921875 0,-1.171875 0.6875,-1.171875 2.390625,-1.171875 6.203125,0 6.203125,-0.625 6.203125,-1.59375 0,-0.5 -0.09375,-0.90625 -0.40625,-2 l -13.5,-53.921875 c -0.890625,-3.5 -1.09375,-4.5 -8.09375,-4.5 -1.90625,0 -2.90625,0 -2.90625,-1.796875 C 4.59375,0 5.203125,0 7.203125,0 H 57.40625 c 2.1875,0 2.296875,0.09375 3,1.71875 z"
           id="CMMI12-69"
           inkscape:connector-curvature="0"
           style="stroke-linecap:butt;stroke-linejoin:round" />
      </defs>
      <g
         transform="matrix(0,-0.12,-0.12,0,15.50218,166.19192)"
         id="g167"
         style="stroke-linecap:butt;stroke-linejoin:round">
        <use
           transform="scale(0.996264)"
           xlink:href="#CMMI12-69"
           id="use165"
           style="stroke-linecap:butt;stroke-linejoin:round"
           x="0"
           y="0"
           width="100%"
           height="100%" />
      </g>
    </g>
    <g
       style="stroke-linecap:butt;stroke-linejoin:round"
       transform="matrix(0.76695654,0,0,0.76695654,40.205843,34.291102)"
       id="g5900">
      <g
         id="text_3"
         style="stroke-linecap:butt;stroke-linejoin:round"
         transform="matrix(1.7393632,0,0,1.7393632,-254.16119,-239.41316)">
        <!-- $1.0$ -->
        <defs
           id="defs99">
          <path
             d="M 26.59375,63.40625 C 26.59375,65.5 26.5,65.5 25.09375,65.5 21.203125,61.1875 15.296875,59.796875 9.703125,59.796875 c -0.296875,0 -0.796875,0 -0.90625,-0.296875 C 8.703125,59.296875 8.703125,59.09375 8.703125,57 11.796875,57 17,57.59375 21,59.984375 V 7.203125 C 21,3.6875 20.796875,2.5 12.203125,2.5 h -3 V 0 C 14,0 19,0 23.796875,0 28.59375,0 33.59375,0 38.40625,0 v 2.5 h -3 c -8.609375,0 -8.8125,1.09375 -8.8125,4.65625 z"
             id="CMR17-49"
             inkscape:connector-curvature="0"
             style="stroke-linecap:butt;stroke-linejoin:round" />
        </defs>
        <g
           transform="matrix(0.1,0,0,-0.1,337.59181,326.97775)"
           id="g107"
           style="stroke-linecap:butt;stroke-linejoin:round">
          <use
             transform="scale(0.996264)"
             xlink:href="#CMR17-49"
             id="use101"
             style="stroke-linecap:butt;stroke-linejoin:round"
             x="0"
             y="0"
             width="100%"
             height="100%" />
          <use
             transform="matrix(0.996264,0,0,0.996264,45.690477,0)"
             xlink:href="#CMMI12-58"
             id="use103"
             style="stroke-linecap:butt;stroke-linejoin:round"
             x="0"
             y="0"
             width="100%"
             height="100%" />
          <use
             transform="matrix(0.996264,0,0,0.996264,72.787654,0)"
             xlink:href="#CMR17-48"
             id="use105"
             style="stroke-linecap:butt;stroke-linejoin:round"
             x="0"
             y="0"
             width="100%"
             height="100%" />
        </g>
      </g>
      <g
         style="stroke-linecap:butt;stroke-linejoin:round"
         id="g5818">
        <g
           transform="matrix(1.5776391,0,0,1.5776391,-23.748178,-187.04527)"
           style="stroke-linecap:butt;stroke-linejoin:round"
           id="text_1">
          <!-- $0.0$ -->
          <defs
             id="defs63">
            <path
               style="stroke-linecap:butt;stroke-linejoin:round"
               inkscape:connector-curvature="0"
               id="CMR17-48"
               d="M 42,31.640625 C 42,37.75 41.90625,48.125 37.703125,56.109375 34,63.109375 28.09375,65.59375 22.90625,65.59375 18.09375,65.59375 12,63.40625 8.203125,56.203125 4.203125,48.71875 3.796875,39.4375 3.796875,31.640625 3.796875,25.953125 3.90625,17.28125 7,9.671875 11.296875,-0.609375 19,-2 22.90625,-2 27.5,-2 34.5,-0.109375 38.59375,9.375 41.59375,16.28125 42,24.359375 42,31.640625 M 22.90625,-0.40625 c -6.40625,0 -10.203125,5.484375 -11.609375,13.09375 -1.09375,5.875 -1.09375,14.46875 -1.09375,20.0625 0,7.6875 0,14.078125 1.296875,20.171875 C 13.40625,61.390625 19,64 22.90625,64 27,64 32.296875,61.296875 34.203125,53.125 35.5,47.4375 35.59375,40.734375 35.59375,32.75 c 0,-6.5 0,-14.484375 -1.1875,-20.375 -2.109375,-10.890625 -8,-12.78125 -11.5,-12.78125" />
            <path
               style="stroke-linecap:butt;stroke-linejoin:round"
               inkscape:connector-curvature="0"
               id="CMMI12-58"
               d="m 18.40625,4.796875 c 0,2.890625 -2.40625,4.875 -4.8125,4.875 -2.890625,0 -4.890625,-2.390625 -4.890625,-4.78125 C 8.703125,2 11.09375,0 13.5,0 c 2.90625,0 4.90625,2.390625 4.90625,4.796875" />
          </defs>
          <g
             style="stroke-linecap:butt;stroke-linejoin:round"
             id="g71"
             transform="matrix(0.1,0,0,-0.1,35.191815,326.97775)">
            <use
               height="100%"
               width="100%"
               y="0"
               x="0"
               style="stroke-linecap:butt;stroke-linejoin:round"
               id="use65"
               xlink:href="#CMR17-48"
               transform="scale(0.996264)" />
            <use
               height="100%"
               width="100%"
               y="0"
               x="0"
               style="stroke-linecap:butt;stroke-linejoin:round"
               id="use67"
               xlink:href="#CMMI12-58"
               transform="matrix(0.996264,0,0,0.996264,45.690477,0)" />
            <use
               height="100%"
               width="100%"
               y="0"
               x="0"
               style="stroke-linecap:butt;stroke-linejoin:round"
               id="use69"
               xlink:href="#CMR17-48"
               transform="matrix(0.996264,0,0,0.996264,72.787654,0)" />
          </g>
        </g>
        <g
           transform="matrix(1.8098872,0,0,1.8098872,-155.73945,-262.24954)"
           style="stroke-linecap:butt;stroke-linejoin:round"
           id="text_2">
          <!-- $0.5$ -->
          <defs
             id="defs81">
            <path
               style="stroke-linecap:butt;stroke-linejoin:round"
               inkscape:connector-curvature="0"
               id="CMR17-53"
               d="M 11.40625,57.6875 C 12.40625,57.28125 16.5,56 20.703125,56 30,56 35.09375,61.109375 38,64.0625 38,64.953125 38,65.5 37.40625,65.5 c -0.109375,0 -0.3125,0 -1.109375,-0.453125 -3.5,-1.640625 -7.59375,-2.96875 -12.59375,-2.96875 -3,0 -7.5,0.40625 -12.40625,2.59375 -1.09375,0.5 -1.296875,0.5 -1.390625,0.5 -0.5,0 -0.609375,-0.109375 -0.609375,-2.09375 v -28.65625 c 0,-1.78125 0,-2.28125 1,-2.28125 0.5,0 0.703125,0.203125 1.203125,0.890625 3.203125,4.484375 7.59375,6.375 12.59375,6.375 3.5,0 11,-2.1875 11,-19.265625 0,-3.1875 0,-8.96875 -3,-13.5625 -2.5,-4.09375 -6.390625,-6.1875 -10.6875,-6.1875 C 14.796875,0.390625 8.09375,5 6.296875,12.71875 6.703125,12.609375 7.5,12.421875 7.90625,12.421875 c 1.296875,0 3.796875,0.703125 3.796875,3.796875 C 11.703125,18.90625 9.796875,20 7.90625,20 5.59375,20 4.09375,18.59375 4.09375,15.796875 4.09375,7.09375 11,-2 21.59375,-2 c 10.3125,0 20.109375,8.875 20.109375,21.75 0,11.96875 -7.796875,21.25 -17.5,21.25 -5.109375,0 -9.40625,-1.890625 -12.796875,-5.46875 z" />
          </defs>
          <g
             style="stroke-linecap:butt;stroke-linejoin:round"
             id="g89"
             transform="matrix(0.1,0,0,-0.1,186.39181,326.97775)">
            <use
               height="100%"
               width="100%"
               y="0"
               x="0"
               style="stroke-linecap:butt;stroke-linejoin:round"
               id="use83"
               xlink:href="#CMR17-48"
               transform="scale(0.996264)" />
            <use
               height="100%"
               width="100%"
               y="0"
               x="0"
               style="stroke-linecap:butt;stroke-linejoin:round"
               id="use85"
               xlink:href="#CMMI12-58"
               transform="matrix(0.996264,0,0,0.996264,45.690477,0)" />
            <use
               height="100%"
               width="100%"
               y="0"
               x="0"
               style="stroke-linecap:butt;stroke-linejoin:round"
               id="use87"
               xlink:href="#CMR17-53"
               transform="matrix(0.996264,0,0,0.996264,72.787654,0)" />
          </g>
        </g>
        <g
           style="stroke-linecap:butt;stroke-linejoin:round"
           id="g5744">
          <g
             id="text_5"
             style="stroke-linecap:butt;stroke-linejoin:round"
             transform="matrix(2.0124529,0,0,2.0124529,-36.065244,-321.29664)">
            <!-- $-3$ -->
            <defs
               id="defs130">
              <path
                 d="m 65.90625,23 c 1.6875,0 3.5,0 3.5,2 0,2 -1.8125,2 -3.5,2 H 11.796875 c -1.703125,0 -3.5,0 -3.5,-2 0,-2 1.796875,-2 3.5,-2 z"
                 id="CMSY10-0"
                 inkscape:connector-curvature="0"
                 style="stroke-linecap:butt;stroke-linejoin:round" />
              <path
                 d="M 22.09375,33.703125 C 31,33.703125 34.90625,25.96875 34.90625,17.03125 34.90625,5 28.5,0.390625 22.703125,0.390625 c -5.296875,0 -13.90625,2.640625 -16.609375,10.4375 0.5,-0.203125 1,-0.203125 1.5,-0.203125 2.40625,0 4.203125,1.59375 4.203125,4.1875 C 11.796875,17.703125 9.59375,19 7.59375,19 5.90625,19 3.296875,18.203125 3.296875,14.46875 3.296875,5.234375 12.296875,-2 22.90625,-2 34,-2 42.5,6.71875 42.5,16.953125 42.5,26.671875 34.5,33.6875 25,34.796875 32.59375,36.375 39.90625,43.0625 39.90625,52.015625 39.90625,59.6875 32,65.296875 23,65.296875 c -9.09375,0 -17.09375,-5.46875 -17.09375,-13.28125 C 5.90625,48.59375 8.5,48 9.796875,48 c 2.109375,0 3.90625,1.296875 3.90625,3.890625 0,2.578125 -1.796875,3.875 -3.90625,3.875 -0.390625,0 -0.890625,0 -1.296875,-0.1875 C 11.40625,61.859375 19.296875,63 22.796875,63 c 3.5,0 10.109375,-1.671875 10.109375,-11.125 0,-2.765625 -0.40625,-7.6875 -3.8125,-12.03125 C 26.09375,36 22.703125,36 19.40625,35.6875 c -0.5,0 -2.8125,-0.234375 -3.203125,-0.234375 C 15.5,35.359375 15.09375,35.265625 15.09375,34.5 c 0,-0.703125 0.109375,-0.796875 2.109375,-0.796875 z"
                 id="CMR17-51"
                 inkscape:connector-curvature="0"
                 style="stroke-linecap:butt;stroke-linejoin:round" />
            </defs>
            <g
               transform="matrix(0.1,0,0,-0.1,21.826776,316.5185)"
               id="g136"
               style="stroke-linecap:butt;stroke-linejoin:round">
              <use
                 transform="scale(0.996264)"
                 xlink:href="#CMSY10-0"
                 id="use132"
                 style="stroke-linecap:butt;stroke-linejoin:round"
                 x="0"
                 y="0"
                 width="100%"
                 height="100%" />
              <use
                 transform="matrix(0.996264,0,0,0.996264,77.487468,0)"
                 xlink:href="#CMR17-51"
                 id="use134"
                 style="stroke-linecap:butt;stroke-linejoin:round"
                 x="0"
                 y="0"
                 width="100%"
                 height="100%" />
            </g>
          </g>
          <g
             style="stroke-linecap:butt;stroke-linejoin:round"
             id="g5686">
            <g
               style="stroke-linecap:butt;stroke-linejoin:round"
               id="line2d_5">
              <g
                 style="stroke-linecap:butt;stroke-linejoin:round"
                 id="g142">
                <use
                   height="100%"
                   width="100%"
                   id="use140"
                   y="161.85925"
                   xlink:href="#me6017c1273"
                   x="41.556854"
                   style="stroke:#000000;stroke-width:0.80000001;stroke-linecap:butt;stroke-linejoin:round" />
              </g>
            </g>
            <g
               transform="matrix(1.8486062,0,0,1.8486062,-27.033882,-137.60207)"
               style="stroke-linecap:butt;stroke-linejoin:round"
               id="text_6">
              <!-- $0$ -->
              <g
                 style="stroke-linecap:butt;stroke-linejoin:round"
                 id="g147"
                 transform="matrix(0.1,0,0,-0.1,29.575519,165.3185)">
                <use
                   height="100%"
                   width="100%"
                   y="0"
                   x="0"
                   style="stroke-linecap:butt;stroke-linejoin:round"
                   id="use145"
                   xlink:href="#CMR17-48"
                   transform="scale(0.996264)" />
              </g>
            </g>
            <g
               style="stroke-linecap:butt;stroke-linejoin:round"
               id="g5636">
              <g
                 style="stroke-linecap:butt;stroke-linejoin:round"
                 id="g158"
                 transform="matrix(0.21073941,0,0,-0.21073941,27.049234,17.610133)">
                <use
                   height="100%"
                   width="100%"
                   y="0"
                   x="0"
                   style="stroke-linecap:butt;stroke-linejoin:round"
                   id="use156"
                   xlink:href="#CMR17-51"
                   transform="scale(0.996264)" />
              </g>
              <g
                 style="stroke-linecap:butt;stroke-linejoin:round"
                 id="g5593">
                <g
                   style="stroke-linecap:butt;stroke-linejoin:round"
                   id="line2d_6">
                  <g
                     style="stroke-linecap:butt;stroke-linejoin:round"
                     id="g153">
                    <use
                       height="100%"
                       width="100%"
                       id="use151"
                       y="10.659249"
                       xlink:href="#me6017c1273"
                       x="41.556854"
                       style="stroke:#000000;stroke-width:0.80000001;stroke-linecap:butt;stroke-linejoin:round" />
                  </g>
                </g>
                <g
                   id="g4395"
                   style="stroke-linecap:butt;stroke-linejoin:round">
                  <g
                     id="line2d_4"
                     style="stroke-linecap:butt;stroke-linejoin:round">
                    <defs
                       id="defs121">
                      <path
                         d="M 0,0 H -3.5"
                         id="me6017c1273"
                         style="stroke:#000000;stroke-width:0.80000001;stroke-linecap:butt;stroke-linejoin:round"
                         inkscape:connector-curvature="0" />
                    </defs>
                    <g
                       id="g125"
                       style="stroke-linecap:butt;stroke-linejoin:round">
                      <use
                         style="stroke:#000000;stroke-width:0.80000001;stroke-linecap:butt;stroke-linejoin:round"
                         x="41.556854"
                         xlink:href="#me6017c1273"
                         y="313.05923"
                         id="use123"
                         width="100%"
                         height="100%" />
                    </g>
                  </g>
                  <g
                     id="g4347"
                     style="stroke-linecap:butt;stroke-linejoin:round">
                    <g
                       style="stroke-linecap:butt;stroke-linejoin:round"
                       id="line2d_1">
                      <defs
                         id="defs54">
                        <path
                           inkscape:connector-curvature="0"
                           style="stroke:#000000;stroke-width:0.80000001;stroke-linecap:butt;stroke-linejoin:round"
                           id="m8907475d36"
                           d="M 0,0 V 3.5" />
                      </defs>
                      <g
                         style="stroke-linecap:butt;stroke-linejoin:round"
                         id="g58">
                        <use
                           height="100%"
                           width="100%"
                           id="use56"
                           y="313.05923"
                           xlink:href="#m8907475d36"
                           x="41.556854"
                           style="stroke:#000000;stroke-width:0.80000001;stroke-linecap:butt;stroke-linejoin:round" />
                      </g>
                    </g>
                    <g
                       id="g4304"
                       style="stroke-linecap:butt;stroke-linejoin:round">
                      <use
                         style="stroke:#000000;stroke-width:0.80000001;stroke-linecap:butt;stroke-linejoin:round"
                         x="343.95685"
                         xlink:href="#m8907475d36"
                         y="313.05923"
                         id="use93"
                         width="100%"
                         height="100%" />
                      <g
                         id="g4269"
                         style="stroke-linecap:butt;stroke-linejoin:round">
                        <g
                           style="stroke-linecap:butt;stroke-linejoin:round"
                           id="line2d_2">
                          <g
                             style="stroke-linecap:butt;stroke-linejoin:round"
                             id="g77">
                            <use
                               height="100%"
                               width="100%"
                               id="use75"
                               y="313.05923"
                               xlink:href="#m8907475d36"
                               x="192.75685"
                               style="stroke:#000000;stroke-width:0.80000001;stroke-linecap:butt;stroke-linejoin:round" />
                          </g>
                        </g>
                        <g
                           id="g4237"
                           style="stroke-linecap:butt;stroke-linejoin:round">
                          <path
                             inkscape:connector-curvature="0"
                             id="path9"
                             style="fill:#ffffff;stroke-linecap:butt;stroke-linejoin:round"
                             d="M 41.556855,313.05925 H 343.95686 V 10.659249 H 41.556855 Z" />
                          <path
                             inkscape:connector-curvature="0"
                             id="path22"
                             style="fill:none;stroke:#000000;stroke-width:1.20000005;stroke-linecap:butt;stroke-linejoin:round"
                             d="m 41.556855,320.13649 6.962162,-1.90704 8.475675,-2.07635 14.832433,-3.34926 14.227027,-3.311 11.805405,-2.98652 15.740543,-4.23709 26.33513,-7.31568 13.62163,-4.04518 12.71351,-3.73581 6.65946,-1.71425 5.75135,-1.24293 5.44865,-0.94064 5.44865,-0.71182 6.05405,-0.55892 7.26486,-0.4374 11.50271,-0.43439 17.25405,-0.43955 7.56757,0.0115 6.05405,0.23009 5.14595,0.4116 5.14594,0.6381 5.14595,0.86076 5.75135,1.18826 6.96216,1.67547 9.08109,2.42826 12.41081,3.55887 13.31892,4.03988 11.2,3.61925 9.68648,3.36077 8.47568,3.16934 6.35676,2.54756 v 0"
                             clip-path="url(#p0cf8a60c02)" />
                          <path
                             inkscape:connector-curvature="0"
                             id="path24"
                             style="fill:none;stroke:#000000;stroke-width:1.20000005;stroke-linecap:butt;stroke-linejoin:round"
                             d="m 41.556855,292.36982 20.886486,-4.30832 11.502703,-2.1223 12.410811,-2.05143 31.783785,-5.11771 9.98919,-1.93323 11.2,-2.41049 34.81081,-7.89537 10.8973,-2.68353 15.43783,-3.83609 4.84325,-0.94181 3.93513,-0.53609 3.32973,-0.23377 3.02703,-0.007 3.32973,0.22769 3.32973,0.45349 3.93513,0.76381 5.75135,1.37611 11.2,2.72092 5.14595,0.99526 4.84324,0.70521 4.84325,0.46881 5.14594,0.26347 6.05406,0.0745 10.29189,-0.14581 8.47568,-0.023 5.44864,0.20096 4.54054,0.37804 4.23784,0.57725 3.93514,0.76591 3.63243,0.92499 3.63243,1.14465 3.93514,1.48748 3.93513,1.73168 4.23784,2.11058 4.84324,2.67677 5.44865,3.27786 6.65946,4.27908 1.51352,1.00234 v 0"
                             clip-path="url(#p0cf8a60c02)" />
                          <path
                             inkscape:connector-curvature="0"
                             id="path26"
                             style="fill:none;stroke:#000000;stroke-width:1.20000005;stroke-linecap:butt;stroke-linejoin:round"
                             d="m 41.556855,259.22066 12.713513,-1.44432 46.616212,-5.54769 18.76757,-2.10403 8.77838,-1.22216 6.96216,-1.18444 6.35676,-1.30075 6.05405,-1.46399 6.05406,-1.69045 6.96216,-2.18081 11.8054,-3.74853 3.63244,-0.89578 3.02702,-0.51669 2.72433,-0.22305 2.42162,0.0246 2.42162,0.23862 2.72433,0.49983 3.02702,0.7813 4.23784,1.33887 9.68649,3.14762 3.63243,0.9176 3.32973,0.60719 3.02703,0.32481 3.02702,0.10183 3.32973,-0.12532 3.63244,-0.36975 4.54054,-0.70549 6.35675,-1.24209 18.76757,-3.79619 6.96216,-1.1106 6.05406,-0.74341 5.44865,-0.45468 5.14594,-0.20702 4.54054,0.0308 4.23784,0.24036 4.23784,0.46829 4.23784,0.69606 5.14594,1.08437 12.10811,2.65758 4.84324,0.7861 4.84325,0.56011 5.14594,0.36798 6.05406,0.19958 8.77838,0.0374 v 0"
                             clip-path="url(#p0cf8a60c02)" />
                          <path
                             inkscape:connector-curvature="0"
                             id="path28"
                             style="fill:none;stroke:#000000;stroke-width:1.20000005;stroke-linecap:butt;stroke-linejoin:round"
                             d="m 41.556855,208.84745 9.686486,-4.65898 5.448649,-2.38221 4.237838,-1.61102 3.632432,-1.15331 3.632432,-0.93021 4.237838,-0.84183 5.145946,-0.77712 7.264865,-0.85226 10.897297,-1.04327 9.686492,-0.72325 6.65945,-0.2888 5.14595,-0.0199 4.54054,0.20211 3.93514,0.4004 3.63243,0.60218 3.32973,0.77966 3.32973,1.01466 3.32973,1.24982 3.63243,1.61071 3.93513,1.9887 4.84325,2.69992 8.47567,5.03467 6.96217,4.03649 4.23783,2.21817 3.32973,1.5096 2.72433,1.01645 2.42162,0.69194 2.42162,0.45761 2.11892,0.19157 2.42162,-0.0206 2.42162,-0.2564 2.72433,-0.52531 3.32973,-0.89828 4.23783,-1.40362 7.56757,-2.80298 8.47568,-3.07485 5.75135,-1.85306 4.84324,-1.33967 4.54054,-1.02511 3.93514,-0.66983 3.63243,-0.40452 3.32973,-0.16203 3.32973,0.0635 3.02703,0.27133 3.02702,0.4851 3.02703,0.70024 3.32973,1.00849 3.63243,1.35705 3.93514,1.72239 4.84324,2.38476 7.56757,4.02569 7.87027,4.12475 4.84324,2.28114 3.93514,1.6154 3.93513,1.36518 3.93514,1.11937 4.23784,0.97621 5.44864,1.01621 8.77838,1.3711 23.61082,3.61076 v 0"
                             clip-path="url(#p0cf8a60c02)" />
                          <path
                             inkscape:connector-curvature="0"
                             id="path30"
                             style="fill:none;stroke:#000000;stroke-width:1.20000005;stroke-linecap:butt;stroke-linejoin:round"
                             d="m 41.556855,192.22326 5.448648,0.0264 4.540541,-0.1807 3.935135,-0.36474 3.632432,-0.56524 3.32973,-0.75547 3.027027,-0.90504 3.32973,-1.23258 3.632432,-1.59352 4.237838,-2.11529 5.145946,-2.82567 7.567568,-4.44108 10.291891,-6.02576 3.632437,-1.86381 2.42162,-1.03068 2.11892,-0.67446 1.81621,-0.34709 1.81622,-0.0937 1.81621,0.1654 1.81622,0.39346 2.42162,0.7879 3.32973,1.36785 10.5946,4.54457 3.63243,1.24371 3.32973,0.92124 3.32973,0.70666 3.63243,0.54139 3.93514,0.34993 4.23784,0.14814 4.84324,-0.0654 5.14594,-0.29326 5.44865,-0.52588 5.75135,-0.77716 5.75135,-1.00275 5.75136,-1.2343 5.75135,-1.47093 5.75135,-1.69958 7.26486,-2.39838 6.65946,-2.16168 3.02703,-0.74535 2.11892,-0.30759 1.81622,-0.0653 1.81621,0.13877 2.11892,0.40031 2.42162,0.69909 3.32973,1.22017 6.35676,2.63776 6.05405,2.41527 3.93514,1.34731 3.63243,1.01236 3.32973,0.69748 3.32973,0.4608 3.32973,0.22428 3.32973,10e-4 3.63243,-0.22538 3.93514,-0.47069 4.54054,-0.77591 5.44865,-1.16924 8.17297,-2.01876 9.08108,-2.20187 4.54054,-0.87707 3.63243,-0.48625 3.32973,-0.21811 3.02703,0.0197 3.02703,0.23142 3.32973,0.47806 3.93513,0.81181 4.54054,1.17809 6.05406,1.82321 9.08108,3.00179 3.02703,1.03106 v 0"
                             clip-path="url(#p0cf8a60c02)" />
                          <path
                             inkscape:connector-curvature="0"
                             id="path32"
                             style="fill:none;stroke:#000000;stroke-width:1.20000005;stroke-linecap:butt;stroke-linejoin:round"
                             d="m 41.556855,131.49524 5.448648,-0.0264 4.540541,0.1807 3.935135,0.36474 3.632432,0.56524 3.32973,0.75546 3.027027,0.90505 3.32973,1.23258 3.632432,1.59352 4.237838,2.11528 5.145946,2.82567 7.567568,4.44108 10.291891,6.02576 3.632437,1.86381 2.42162,1.03069 2.11892,0.67446 1.81621,0.34709 1.81622,0.0937 1.81621,-0.16539 1.81622,-0.39346 2.42162,-0.7879 3.32973,-1.36786 10.5946,-4.54457 3.63243,-1.2437 3.32973,-0.92124 3.32973,-0.70666 3.63243,-0.54139 3.93514,-0.34993 4.23784,-0.14814 4.84324,0.0654 5.14594,0.29326 5.44865,0.52588 5.75135,0.77715 5.75135,1.00276 5.75136,1.23429 5.75135,1.47093 5.75135,1.69959 7.26486,2.39837 6.65946,2.16169 3.02703,0.74535 2.11892,0.30759 1.81622,0.0652 1.81621,-0.13876 2.11892,-0.40032 2.42162,-0.69909 3.32973,-1.22016 6.35676,-2.63776 6.05405,-2.41527 3.93514,-1.34732 3.63243,-1.01235 3.32973,-0.69748 3.32973,-0.4608 3.32973,-0.22428 3.32973,-0.001 3.63243,0.22538 3.93514,0.47068 4.54054,0.77592 5.44865,1.16924 8.17297,2.01876 9.08108,2.20187 4.54054,0.87707 3.63243,0.48625 3.32973,0.21811 3.02703,-0.0197 3.02703,-0.23143 3.32973,-0.47806 3.93513,-0.8118 4.54054,-1.17809 6.05406,-1.82322 9.08108,-3.00178 3.02703,-1.03107 v 0"
                             clip-path="url(#p0cf8a60c02)" />
                          <path
                             inkscape:connector-curvature="0"
                             id="path34"
                             style="fill:none;stroke:#000000;stroke-width:1.20000005;stroke-linecap:butt;stroke-linejoin:round"
                             d="m 41.556855,114.87105 9.686486,4.65898 5.448649,2.38221 4.237838,1.61102 3.632432,1.1533 3.632432,0.93021 4.237838,0.84184 5.145946,0.77712 7.264865,0.85225 10.897297,1.04328 9.686492,0.72325 6.65945,0.2888 5.14595,0.0199 4.54054,-0.20212 3.93514,-0.4004 3.63243,-0.60217 3.32973,-0.77967 3.32973,-1.01465 3.32973,-1.24982 3.63243,-1.61072 3.93513,-1.98869 4.84325,-2.69992 8.47567,-5.03467 6.96217,-4.03649 4.23783,-2.21817 3.32973,-1.50961 2.72433,-1.01644 2.42162,-0.69195 2.42162,-0.4576 2.11892,-0.19157 2.42162,0.0206 2.42162,0.2564 2.72433,0.52531 3.32973,0.89828 4.23783,1.40362 7.56757,2.80298 8.47568,3.07485 5.75135,1.85305 4.84324,1.33968 4.54054,1.02511 3.93514,0.66983 3.63243,0.40452 3.32973,0.16202 3.32973,-0.0635 3.02703,-0.27133 3.02702,-0.4851 3.02703,-0.70024 3.32973,-1.00849 3.63243,-1.35706 3.93514,-1.72238 4.84324,-2.38476 7.56757,-4.02569 7.87027,-4.12475 4.84324,-2.28114 3.93514,-1.615404 3.93513,-1.365183 3.93514,-1.119363 4.23784,-0.976209 5.44864,-1.016214 8.77838,-1.371101 23.61082,-3.610756 v 0"
                             clip-path="url(#p0cf8a60c02)" />
                          <path
                             inkscape:connector-curvature="0"
                             id="path36"
                             style="fill:none;stroke:#000000;stroke-width:1.20000005;stroke-linecap:butt;stroke-linejoin:round"
                             d="m 41.556855,64.497841 12.713513,1.44432 46.616212,5.547689 18.76757,2.10403 8.77838,1.222154 6.96216,1.184448 6.35676,1.300745 6.05405,1.463991 6.05406,1.690445 6.96216,2.18081 11.8054,3.748532 3.63244,0.895786 3.02702,0.516683 2.72433,0.223054 2.42162,-0.02459 2.42162,-0.238621 2.72433,-0.499833 3.02702,-0.781298 4.23784,-1.33887 9.68649,-3.147618 3.63243,-0.917598 3.32973,-0.607194 3.02703,-0.324809 3.02702,-0.10183 3.32973,0.125317 3.63244,0.36975 4.54054,0.705494 6.35675,1.242086 18.76757,3.796189 6.96216,1.1106 6.05406,0.743418 5.44865,0.454677 5.14594,0.207015 4.54054,-0.03076 4.23784,-0.240357 4.23784,-0.46829 4.23784,-0.696056 5.14594,-1.08437 12.10811,-2.657585 4.84324,-0.786104 4.84325,-0.560103 5.14594,-0.367984 6.05406,-0.199575 8.77838,-0.03744 v 0"
                             clip-path="url(#p0cf8a60c02)" />
                          <path
                             inkscape:connector-curvature="0"
                             id="path38"
                             style="fill:none;stroke:#000000;stroke-width:1.20000005;stroke-linecap:butt;stroke-linejoin:round"
                             d="m 41.556855,31.348678 20.886486,4.308315 11.502703,2.122307 12.410811,2.051426 31.783785,5.117718 9.98919,1.933221 11.2,2.41049 34.81081,7.895372 10.8973,2.683527 15.43783,3.836091 4.84325,0.94181 3.93513,0.536091 3.32973,0.23377 3.02703,0.0068 3.32973,-0.227686 3.32973,-0.453491 3.93513,-0.763807 5.75135,-1.376114 11.2,-2.720924 5.14595,-0.995255 4.84324,-0.705206 4.84325,-0.468812 5.14594,-0.263471 6.05406,-0.07446 10.29189,0.145803 8.47568,0.02303 5.44864,-0.200961 4.54054,-0.378033 4.23784,-0.577259 3.93514,-0.765907 3.63243,-0.924985 3.63243,-1.144658 3.93514,-1.487473 3.93513,-1.73168 4.23784,-2.110582 4.84324,-2.676768 5.44865,-3.277864 6.65946,-4.27908 1.51352,-1.002342 v 0"
                             clip-path="url(#p0cf8a60c02)" />
                          <path
                             inkscape:connector-curvature="0"
                             id="path40"
                             style="fill:none;stroke:#000000;stroke-width:1.20000005;stroke-linecap:butt;stroke-linejoin:round"
                             d="m 41.556855,3.582009 6.962162,1.907036 8.475675,2.076352 14.832433,3.34926 14.227027,3.311004 11.805405,2.986517 15.740543,4.237087 26.33513,7.315679 13.62163,4.045183 12.71351,3.735808 6.65946,1.714251 5.75135,1.242929 5.44865,0.940649 5.44865,0.711814 6.05405,0.558921 7.26486,0.437401 11.50271,0.434386 17.25405,0.439554 7.56757,-0.01145 6.05405,-0.230095 5.14595,-0.411599 5.14594,-0.638092 5.14595,-0.860761 5.75135,-1.188266 6.96216,-1.675468 9.08109,-2.428259 12.41081,-3.55887 13.31892,-4.039884 11.2,-3.619251 9.68648,-3.36077 8.47568,-3.169337 6.35676,-2.547559 v 0"
                             clip-path="url(#p0cf8a60c02)" />
                          <path
                             inkscape:connector-curvature="0"
                             id="path171"
                             style="fill:none;stroke:#0000ff;stroke-width:2;stroke-linecap:butt;stroke-linejoin:round;stroke-dasharray:5.6, 2.4;stroke-dashoffset:0"
                             d="M 41.556855,161.85925 H 343.95686"
                             clip-path="url(#p0cf8a60c02)" />
                          <path
                             inkscape:connector-curvature="0"
                             id="path174"
                             style="fill:none;stroke:#000000;stroke-width:0.80000001;stroke-linecap:square;stroke-linejoin:miter"
                             d="M 41.556855,313.05925 V 10.659249" />
                          <path
                             inkscape:connector-curvature="0"
                             id="path177"
                             style="fill:none;stroke:#000000;stroke-width:0.80000001;stroke-linecap:square;stroke-linejoin:miter"
                             d="M 343.95686,313.05925 V 10.659249" />
                          <path
                             inkscape:connector-curvature="0"
                             id="path180"
                             style="fill:none;stroke:#000000;stroke-width:0.80000001;stroke-linecap:square;stroke-linejoin:miter"
                             d="M 41.556855,313.05925 H 343.95686" />
                          <path
                             inkscape:connector-curvature="0"
                             id="path183"
                             style="fill:none;stroke:#000000;stroke-width:0.80000001;stroke-linecap:square;stroke-linejoin:miter"
                             d="M 41.556855,10.659249 H 343.95686" />
                        </g>
                      </g>
                    </g>
                  </g>
                </g>
              </g>
            </g>
          </g>
        </g>
      </g>
    </g>
  </g>
  <defs
     id="defs191">
    <clipPath
       id="p0cf8a60c02">
      <rect
         height="302.4"
         width="302.4"
         x="41.556855"
         y="10.659249"
         id="rect188" />
    </clipPath>
  </defs>
</svg>
